# xmcd
#
# Track frame offsets: 
#        150
#        15702
#        32001
#        58747
#        74877
#        100048
#        120978
#        144998
#        159017
#        181291
#        201470
#
# Disc length: 2898 seconds
#
# Revision: 0
# Processed by: cddbd v1.5.2PL0 Copyright (c) Steve Scherf et al.
# Submitted via: ExactAudioCopy v0.99pb3
#
DISCID=930b500b
DTITLE=Kenny 'Blues Boss' Wayne - Can't Stop Now
DYEAR=2008
DGENRE=Blues
TTITLE0=Boogie Woogie Mama
TTITLE1=You Can Pack Your Suitcase
TTITLE2=Judge By The Look
TTITLE3=You Cured My Blues
TTITLE4=My Sweet Little Peach
TTITLE5=Let's Have Some Fun
TTITLE6=Ragin' Storm
TTITLE7=Don't Cry
TTITLE8=Tanqueray
TTITLE9=Johnnie J. Was Good
TTITLE10=The Party's Over
EXTD=
EXTT0=
EXTT1=
EXTT2=
EXTT3=
EXTT4=
EXTT5=
EXTT6=
EXTT7=
EXTT8=
EXTT9=
EXTT10=
PLAYORDER=
